<svg width="25" height="25" viewBox="0 0 25 25" fill="none" xmlns="http://www.w3.org/2000/svg">
<path d="M6.25001 1.95312C5.40016 1.95312 4.56941 2.20513 3.86279 2.67728C3.15617 3.14943 2.60543 3.82051 2.28021 4.60566C1.95499 5.39081 1.86989 6.25477 2.03569 7.08828C2.20149 7.92179 2.61072 8.68742 3.21165 9.28835C3.81258 9.88928 4.57821 10.2985 5.41173 10.4643C6.24524 10.6301 7.1092 10.545 7.89435 10.2198C8.6795 9.89457 9.35058 9.34383 9.82273 8.63722C10.2949 7.9306 10.5469 7.09984 10.5469 6.25C10.5456 5.11079 10.0925 4.01862 9.28693 3.21308C8.48139 2.40754 7.38921 1.95442 6.25001 1.95312ZM6.25001 9.76563C5.55468 9.76563 4.87497 9.55944 4.29683 9.17314C3.71869 8.78683 3.26808 8.23777 3.00199 7.59537C2.7359 6.95298 2.66628 6.2461 2.80193 5.56414C2.93758 4.88217 3.27241 4.25575 3.76408 3.76408C4.25575 3.27241 4.88218 2.93758 5.56414 2.80193C6.24611 2.66628 6.95298 2.7359 7.59538 3.00199C8.23778 3.26808 8.78684 3.71868 9.17315 4.29682C9.55945 4.87496 9.76564 5.55468 9.76564 6.25C9.76459 7.18208 9.39386 8.07569 8.73478 8.73477C8.07569 9.39385 7.18209 9.76458 6.25001 9.76563Z" fill="black"/>
<path d="M7.03125 5.46875C7.13485 5.46875 7.23421 5.42759 7.30746 5.35434C7.38072 5.28108 7.42188 5.18173 7.42188 5.07812C7.42188 4.97452 7.38072 4.87517 7.30746 4.80191C7.23421 4.72866 7.13485 4.6875 7.03125 4.6875H6.64062C6.64062 4.5839 6.59947 4.48454 6.52621 4.41129C6.45296 4.33803 6.3536 4.29688 6.25 4.29688C6.1464 4.29688 6.04704 4.33803 5.97379 4.41129C5.90053 4.48454 5.85938 4.5839 5.85938 4.6875H5.46875C5.36515 4.6875 5.26579 4.72866 5.19254 4.80191C5.11928 4.87517 5.07812 4.97452 5.07812 5.07812V6.25C5.07812 6.3536 5.11928 6.45296 5.19254 6.52621C5.26579 6.59947 5.36515 6.64062 5.46875 6.64062H6.64062V7.03125H5.46875C5.36515 7.03125 5.26579 7.0724 5.19254 7.14566C5.11928 7.21892 5.07812 7.31827 5.07812 7.42188C5.07812 7.52548 5.11928 7.62483 5.19254 7.69809C5.26579 7.77135 5.36515 7.8125 5.46875 7.8125H5.85938C5.85938 7.9161 5.90053 8.01546 5.97379 8.08871C6.04704 8.16197 6.1464 8.20312 6.25 8.20312C6.3536 8.20312 6.45296 8.16197 6.52621 8.08871C6.59947 8.01546 6.64062 7.9161 6.64062 7.8125H7.03125C7.13485 7.8125 7.23421 7.77135 7.30746 7.69809C7.38072 7.62483 7.42188 7.52548 7.42188 7.42188V6.25C7.42188 6.1464 7.38072 6.04704 7.30746 5.97379C7.23421 5.90053 7.13485 5.85938 7.03125 5.85938H5.85938V5.46875H7.03125Z" fill="black"/>
<path d="M10.7422 0.390625H1.75781C1.39534 0.391039 1.04783 0.535214 0.791522 0.791522C0.535214 1.04783 0.391039 1.39534 0.390625 1.75781V10.7422C0.391039 11.1047 0.535214 11.4522 0.791522 11.7085C1.04783 11.9648 1.39534 12.109 1.75781 12.1094H10.7422C11.1047 12.109 11.4522 11.9648 11.7085 11.7085C11.9648 11.4522 12.109 11.1047 12.1094 10.7422V1.75781C12.109 1.39534 11.9648 1.04783 11.7085 0.791522C11.4522 0.535214 11.1047 0.391039 10.7422 0.390625ZM11.3281 10.7422C11.328 10.8975 11.2662 11.0465 11.1563 11.1563C11.0465 11.2662 10.8975 11.328 10.7422 11.3281H1.75781C1.60246 11.328 1.45353 11.2662 1.34368 11.1563C1.23383 11.0465 1.17204 10.8975 1.17188 10.7422V1.75781C1.17204 1.60246 1.23383 1.45353 1.34368 1.34368C1.45353 1.23383 1.60246 1.17204 1.75781 1.17188H10.7422C10.8975 1.17204 11.0465 1.23383 11.1563 1.34368C11.2662 1.45353 11.328 1.60246 11.3281 1.75781V10.7422Z" fill="black"/>
<path d="M23.2422 0.390625H14.2578C13.8953 0.391039 13.5478 0.535214 13.2915 0.791522C13.0352 1.04783 12.891 1.39534 12.8906 1.75781V10.7422C12.891 11.1047 13.0352 11.4522 13.2915 11.7085C13.5478 11.9648 13.8953 12.109 14.2578 12.1094H23.2422C23.6047 12.109 23.9522 11.9648 24.2085 11.7085C24.4648 11.4522 24.609 11.1047 24.6094 10.7422V1.75781C24.609 1.39534 24.4648 1.04783 24.2085 0.791522C23.9522 0.535214 23.6047 0.391039 23.2422 0.390625ZM23.8281 10.7422C23.828 10.8975 23.7662 11.0465 23.6563 11.1563C23.5465 11.2662 23.3975 11.328 23.2422 11.3281H14.2578C14.1025 11.328 13.9535 11.2662 13.8437 11.1563C13.7338 11.0465 13.672 10.8975 13.6719 10.7422V1.75781C13.672 1.60246 13.7338 1.45353 13.8437 1.34368C13.9535 1.23383 14.1025 1.17204 14.2578 1.17188H23.2422C23.3975 1.17204 23.5465 1.23383 23.6563 1.34368C23.7662 1.45353 23.828 1.60246 23.8281 1.75781V10.7422Z" fill="black"/>
<path d="M10.7422 12.8906H1.75781C1.39534 12.891 1.04783 13.0352 0.791522 13.2915C0.535214 13.5478 0.391039 13.8953 0.390625 14.2578V23.2422C0.391039 23.6047 0.535214 23.9522 0.791522 24.2085C1.04783 24.4648 1.39534 24.609 1.75781 24.6094H10.7422C11.1047 24.609 11.4522 24.4648 11.7085 24.2085C11.9648 23.9522 12.109 23.6047 12.1094 23.2422V14.2578C12.109 13.8953 11.9648 13.5478 11.7085 13.2915C11.4522 13.0352 11.1047 12.891 10.7422 12.8906ZM11.3281 23.2422C11.328 23.3975 11.2662 23.5465 11.1563 23.6563C11.0465 23.7662 10.8975 23.828 10.7422 23.8281H1.75781C1.60246 23.828 1.45353 23.7662 1.34368 23.6563C1.23383 23.5465 1.17204 23.3975 1.17188 23.2422V14.2578C1.17204 14.1025 1.23383 13.9535 1.34368 13.8437C1.45353 13.7338 1.60246 13.672 1.75781 13.6719H10.7422C10.8975 13.672 11.0465 13.7338 11.1563 13.8437C11.2662 13.9535 11.328 14.1025 11.3281 14.2578V23.2422Z" fill="black"/>
<path d="M23.2422 12.8906H14.2578C13.8953 12.891 13.5478 13.0352 13.2915 13.2915C13.0352 13.5478 12.891 13.8953 12.8906 14.2578V23.2422C12.891 23.6047 13.0352 23.9522 13.2915 24.2085C13.5478 24.4648 13.8953 24.609 14.2578 24.6094H23.2422C23.6047 24.609 23.9522 24.4648 24.2085 24.2085C24.4648 23.9522 24.609 23.6047 24.6094 23.2422V14.2578C24.609 13.8953 24.4648 13.5478 24.2085 13.2915C23.9522 13.0352 23.6047 12.891 23.2422 12.8906ZM23.8281 23.2422C23.828 23.3975 23.7662 23.5465 23.6564 23.6564C23.5465 23.7662 23.3975 23.828 23.2422 23.8281H14.2578C14.1025 23.828 13.9535 23.7662 13.8436 23.6564C13.7338 23.5465 13.672 23.3975 13.6719 23.2422V14.2578C13.672 14.1025 13.7338 13.9535 13.8436 13.8436C13.9535 13.7338 14.1025 13.672 14.2578 13.6719H23.2422C23.3975 13.672 23.5465 13.7338 23.6564 13.8436C23.7662 13.9535 23.828 14.1025 23.8281 14.2578V23.2422Z" fill="black"/>
<path d="M21.483 17.5457C21.4748 17.448 21.4303 17.357 21.3582 17.2907C21.2861 17.2243 21.1917 17.1875 21.0937 17.1875H20.3125V16.6016C20.3121 16.2391 20.1679 15.8916 19.9116 15.6353C19.6553 15.379 19.3078 15.2348 18.9453 15.2344H18.5547C18.1922 15.2348 17.8447 15.379 17.5884 15.6353C17.3321 15.8916 17.1879 16.2391 17.1875 16.6016V17.1875H16.4062C16.3083 17.1875 16.2139 17.2243 16.1418 17.2907C16.0697 17.357 16.0251 17.448 16.017 17.5457L15.6264 22.2332C15.6219 22.287 15.6286 22.3412 15.6461 22.3923C15.6636 22.4434 15.6916 22.4903 15.7282 22.5301C15.7647 22.5699 15.8092 22.6016 15.8587 22.6233C15.9081 22.645 15.9616 22.6562 16.0156 22.6562H21.4844C21.5384 22.6562 21.5918 22.645 21.6413 22.6233C21.6908 22.6016 21.7352 22.5699 21.7718 22.5301C21.8084 22.4903 21.8363 22.4434 21.8538 22.3923C21.8714 22.3412 21.8781 22.287 21.8736 22.2332L21.483 17.5457ZM17.9687 16.6016C17.9689 16.4462 18.0307 16.2973 18.1405 16.1874C18.2504 16.0776 18.3993 16.0158 18.5547 16.0156H18.9453C19.1006 16.0158 19.2496 16.0776 19.3594 16.1874C19.4693 16.2973 19.5311 16.4462 19.5312 16.6016V17.1875H17.9687V16.6016ZM16.4401 21.875L16.7657 17.9688H17.1875V18.3594C17.1875 18.463 17.2286 18.5623 17.3019 18.6356C17.3751 18.7088 17.4745 18.75 17.5781 18.75C17.6817 18.75 17.7811 18.7088 17.8543 18.6356C17.9276 18.5623 17.9687 18.463 17.9687 18.3594V17.9688H19.5312V18.3594C19.5312 18.463 19.5724 18.5623 19.6456 18.6356C19.7189 18.7088 19.8183 18.75 19.9219 18.75C20.0255 18.75 20.1248 18.7088 20.1981 18.6356C20.2713 18.5623 20.3125 18.463 20.3125 18.3594V17.9688H20.7343L21.0598 21.875H16.4401Z" fill="black"/>
</svg>
