<svg width="25" height="25" viewBox="0 0 25 25" fill="none" xmlns="http://www.w3.org/2000/svg">
<g clip-path="url(#clip0)">
<path d="M21.663 4.58333C21.6639 4.47339 21.6214 4.3675 21.5446 4.28875L17.378 0.122083C17.2996 0.0447917 17.1934 0.0021875 17.0834 0.00375V0H4.58337C3.89301 0 3.33337 0.559635 3.33337 1.25V23.75C3.33337 24.4404 3.89301 25 4.58337 25H20.4167C21.1071 25 21.6667 24.4404 21.6667 23.75V4.58333H21.663ZM17.5 1.4225L20.2442 4.16667H17.9167C17.6866 4.16667 17.5 3.9801 17.5 3.75V1.4225ZM20.8334 23.75C20.8334 23.9801 20.6468 24.1667 20.4167 24.1667H4.58337C4.35327 24.1667 4.16671 23.9801 4.16671 23.75V1.25C4.16671 1.0199 4.35327 0.833333 4.58337 0.833333H16.6667V3.75C16.6667 4.44036 17.2263 5 17.9167 5H20.8334V23.75Z" fill="#373737" stroke="#373737" stroke-width="0.5"/>
<path d="M7.5 11.25C6.80964 11.25 6.25 11.8096 6.25 12.5C6.25 13.1904 6.80964 13.75 7.5 13.75C8.19036 13.75 8.75 13.1904 8.75 12.5C8.75 11.8096 8.19036 11.25 7.5 11.25ZM7.5 12.9167C7.2699 12.9167 7.08333 12.7301 7.08333 12.5C7.08333 12.2699 7.2699 12.0833 7.5 12.0833C7.7301 12.0833 7.91667 12.2699 7.91667 12.5C7.91667 12.7301 7.7301 12.9167 7.5 12.9167Z" fill="#373737"/>
<path d="M18.75 12.0833H10.4166V12.9167H18.75V12.0833Z" fill="#373737"/>
<path d="M7.5 7.08333C6.80964 7.08333 6.25 7.64296 6.25 8.33333C6.25 9.02369 6.80964 9.58333 7.5 9.58333C8.19036 9.58333 8.75 9.02369 8.75 8.33333C8.75 7.64296 8.19036 7.08333 7.5 7.08333ZM7.5 8.75C7.2699 8.75 7.08333 8.56343 7.08333 8.33333C7.08333 8.10322 7.2699 7.91666 7.5 7.91666C7.7301 7.91666 7.91667 8.10322 7.91667 8.33333C7.91667 8.56343 7.7301 8.75 7.5 8.75Z" fill="#373737"/>
<path d="M18.75 7.91667H10.4166V8.75H18.75V7.91667Z" fill="#373737"/>
<path d="M7.5 15.4167C6.80964 15.4167 6.25 15.9763 6.25 16.6667C6.25 17.357 6.80964 17.9167 7.5 17.9167C8.19036 17.9167 8.75 17.357 8.75 16.6667C8.75 15.9763 8.19036 15.4167 7.5 15.4167ZM7.5 17.0833C7.2699 17.0833 7.08333 16.8968 7.08333 16.6667C7.08333 16.4366 7.2699 16.25 7.5 16.25C7.7301 16.25 7.91667 16.4366 7.91667 16.6667C7.91667 16.8968 7.7301 17.0833 7.5 17.0833Z" fill="#373737"/>
<path d="M18.75 16.25H10.4166V17.0833H18.75V16.25Z" fill="#373737"/>
<path d="M7.5 19.5833C6.80964 19.5833 6.25 20.143 6.25 20.8333C6.25 21.5237 6.80964 22.0833 7.5 22.0833C8.19036 22.0833 8.75 21.5237 8.75 20.8333C8.75 20.143 8.19036 19.5833 7.5 19.5833ZM7.5 21.25C7.2699 21.25 7.08333 21.0634 7.08333 20.8333C7.08333 20.6032 7.2699 20.4167 7.5 20.4167C7.7301 20.4167 7.91667 20.6032 7.91667 20.8333C7.91667 21.0634 7.7301 21.25 7.5 21.25Z" fill="#373737"/>
<path d="M18.75 20.4167H10.4166V21.25H18.75V20.4167Z" fill="#373737"/>
</g>
<defs>
<clipPath id="clip0">
<rect width="25" height="25" fill="white"/>
</clipPath>
</defs>
</svg>
