<svg width="23" height="23" viewBox="0 0 23 23" fill="none" xmlns="http://www.w3.org/2000/svg">
<path d="M5.75001 9.03569H0.821444C0.367765 9.03569 0 9.40346 0 9.85713V22.1786C0 22.6322 0.367765 23 0.821444 23H5.75001C6.20369 23 6.57146 22.6322 6.57146 22.1786V9.85713C6.57141 9.40346 6.20364 9.03569 5.75001 9.03569ZM4.92857 21.3571H1.64284V10.6786H4.92857V21.3571Z" fill="black"/>
<path d="M13.9643 0H9.03568C8.582 0 8.21423 0.367765 8.21423 0.821444V22.1786C8.21423 22.6322 8.582 23 9.03568 23H13.9643C14.4179 23 14.7857 22.6322 14.7857 22.1786V0.821444C14.7857 0.367765 14.4179 0 13.9643 0ZM13.1429 21.3571H9.85713V1.64284H13.1429V21.3571Z" fill="black"/>
<path d="M22.1786 6.5714H17.25C16.7964 6.5714 16.4286 6.93916 16.4286 7.39284V22.1785C16.4286 22.6322 16.7964 23 17.25 23H22.1786C22.6323 23 23 22.6322 23 22.1785V7.39284C23 6.93916 22.6323 6.5714 22.1786 6.5714ZM21.3572 21.3571H18.0714V8.21428H21.3572V21.3571Z" fill="black"/>
</svg>
