<svg width="30" height="30" viewBox="0 0 30 30" fill="none" xmlns="http://www.w3.org/2000/svg">
<path d="M13.0375 23.4375C13.5 22.8625 14.2125 22.5 15 22.5C15.7875 22.5 16.4875 22.8625 16.95 23.4375C17.4375 23.325 17.9 23.175 18.35 22.9875L16.575 19.0125C16.0875 19.2 15.55 19.3 15 19.3C14.425 19.3 13.875 19.1875 13.375 18.9875L11.5875 22.975C12.0625 23.175 12.5375 23.3375 13.0375 23.4375ZM6.4375 12.5C6.2375 13.2375 6.125 14.0125 6.125 14.8125C6.125 15.75 6.275 16.65 6.5375 17.5C7.325 17.5625 8.0625 18 8.4875 18.7375C8.9 19.45 8.925 20.275 8.625 20.975C8.9625 21.3125 9.325 21.6375 9.7125 21.925L11.6125 17.6875C11.025 16.9625 10.675 16.0375 10.675 15.025C10.675 12.6625 12.6125 10.7625 15 10.7625C17.3875 10.7625 19.325 12.675 19.325 15.025C19.325 16.05 18.9625 16.9875 18.35 17.725L20.225 21.9125C20.625 21.6125 21 21.2875 21.35 20.925C21.075 20.2375 21.1 19.425 21.5 18.7375C21.9125 18.025 22.625 17.5875 23.4 17.5C23.675 16.65 23.825 15.7375 23.825 14.8C23.825 14 23.7125 13.2125 23.5125 12.475C22.7125 12.425 21.9375 11.9875 21.5125 11.225C21.0625 10.45 21.075 9.525 21.475 8.7875C20.3375 7.5625 18.85 6.65 17.175 6.225C16.7375 7 15.925 7.5 15 7.5C14.075 7.5 13.2625 6.9875 12.825 6.2375C11.15 6.6625 9.6625 7.55 8.525 8.775C8.9375 9.525 8.9625 10.4625 8.5 11.25C8.0625 12.025 7.2625 12.4625 6.4375 12.5ZM4.8125 11.975C3.8375 11.225 3.5375 9.85 4.175 8.75C4.8125 7.65 6.15 7.2125 7.2875 7.6875C8.675 6.225 10.4875 5.15 12.5125 4.6625C12.6875 3.4375 13.7375 2.5 15 2.5C16.2625 2.5 17.3125 3.4375 17.475 4.6625C19.5125 5.15 21.3125 6.2125 22.7 7.6875C23.8375 7.2125 25.1875 7.65 25.8125 8.75C26.45 9.85 26.15 11.225 25.175 11.975C25.4625 12.9375 25.6125 13.95 25.6125 15C25.6125 16.05 25.4625 17.0625 25.175 18.025C26.15 18.775 26.45 20.15 25.8125 21.25C25.175 22.35 23.8375 22.7875 22.7 22.3125C22.2 22.85 21.6375 23.325 21.025 23.75L22.7 27.5H20.375L19.1625 24.7875C18.625 25.0125 18.0625 25.2 17.4875 25.3375C17.3125 26.5625 16.2625 27.5 15 27.5C13.7375 27.5 12.6875 26.5625 12.525 25.3375C11.925 25.1875 11.35 25 10.8 24.7625L9.575 27.5H7.225L8.925 23.7125C8.3375 23.3 7.7875 22.825 7.3 22.3125C6.15 22.7875 4.8125 22.35 4.175 21.25C3.5375 20.15 3.8375 18.775 4.8125 18.025C4.525 17.0625 4.375 16.05 4.375 15C4.375 13.95 4.525 12.9375 4.8125 11.975Z" fill="#323232"/>
</svg>
