<svg width="25" height="25" viewBox="0 0 25 25" fill="#000000" xmlns="http://www.w3.org/2000/svg">
<g clip-path="url(#clip0)">
<path d="M22.4302 25L23.0519 23.5797L22.2573 5.05265H16.9354C16.2907 2.07034 14.645 0 12.6725 0C10.698 0 9.05699 2.07034 8.40963 5.05265H3.23615L1.94885 23.976L2.77982 25.0007H22.4302V25ZM15.4482 7.89253C15.4482 8.38531 15.8458 8.78358 16.3366 8.78358C16.8294 8.78358 17.2283 8.38531 17.2283 7.89253C17.2283 7.7501 17.2256 7.60632 17.2229 7.46524C17.5429 7.72107 17.7481 8.1126 17.7481 8.55137C17.7481 9.31889 17.1271 9.93992 16.3609 9.93992C15.5941 9.93992 14.973 9.31889 14.973 8.55137C14.973 8.14162 15.1546 7.77238 15.4374 7.51924C15.4442 7.64209 15.4482 7.76765 15.4482 7.89253ZM12.6725 1.78345C13.602 1.78345 14.6044 3.04104 15.1114 5.05333H10.2322C10.7412 3.04239 11.7443 1.78345 12.6725 1.78345ZM8.12139 7.50979C8.11734 7.63669 8.11532 7.76495 8.11532 7.89253C8.11532 8.38531 8.51561 8.78358 9.00704 8.78358C9.49982 8.78358 9.89809 8.38531 9.89809 7.89253C9.89809 7.7528 9.90214 7.61442 9.90619 7.47604C10.2187 7.7312 10.4192 8.11867 10.4192 8.55272C10.4192 9.31956 9.79818 9.9406 9.03067 9.9406C8.2645 9.9406 7.64482 9.31956 7.64482 8.55272C7.64684 8.1369 7.83045 7.76293 8.12139 7.50979Z" fill="#000000"/>
</g>
<defs>
<clipPath id="clip0">
<rect width="25" height="25" fill="white"/>
</clipPath>
</defs>
</svg>
