<svg width="20" height="20" viewBox="0 0 20 20" fill="none" xmlns="http://www.w3.org/2000/svg">
<path d="M19.0826 18.1716H0.908947C0.40683 18.1716 3.05176e-05 18.5784 3.05176e-05 19.081C3.05176e-05 19.5827 0.40683 19.9895 0.908947 19.9895H19.0822C19.5843 19.9895 19.9911 19.5827 19.9911 19.081C19.9907 18.5784 19.5839 18.1716 19.0826 18.1716Z" fill="#000000"/>
<path d="M2.04466 15.8087C1.54254 15.8087 1.13574 16.2155 1.13574 16.7176C1.13574 17.2197 1.54254 17.627 2.04466 17.627H17.9464C18.4486 17.627 18.8554 17.2197 18.8554 16.7176C18.8554 16.2155 18.4486 15.8087 17.9464 15.8087H17.7196V7.63014H17.9464C18.1979 7.63014 18.4005 7.42674 18.4005 7.17611C18.4005 6.92548 18.1971 6.72208 17.9464 6.72208H2.04466C1.7936 6.72208 1.59063 6.92548 1.59063 7.17611C1.59063 7.42674 1.79403 7.63014 2.04466 7.63014H2.27189V15.8083H2.04466V15.8087ZM15.9018 7.63014V15.8083H13.1759V7.63014H15.9018ZM11.3581 7.63014V15.8083H8.63218V7.63014H11.3581ZM4.08887 7.63014H6.81477V15.8083H4.08887V7.63014Z" fill="#000000"/>
<path d="M0.908934 5.90604H19.0822C19.0851 5.90604 19.0885 5.90604 19.0911 5.90604C19.5936 5.90604 20 5.49924 20 4.99713C20 4.59799 19.743 4.2597 19.386 4.13715L10.3692 0.0797855C10.1321 -0.0265952 9.86108 -0.0265952 9.62364 0.0797855L0.536176 4.16863C0.145121 4.3448 -0.0697685 4.76947 0.0204424 5.18819C0.110228 5.6069 0.480433 5.90604 0.908934 5.90604Z" fill="#000000"/>
</svg>
