<svg width="30" height="30" viewBox="0 0 30 30" fill="none" xmlns="http://www.w3.org/2000/svg">
<path d="M16.4087 18.2L18.1962 16.4125L26.2462 24.4663L24.4625 26.25L16.4087 18.2ZM21.775 11.0375L25.35 7.46254C20.4125 2.52504 12.4125 2.51254 7.47498 7.43754C12.3875 5.81254 17.8625 7.12504 21.775 11.0375ZM7.43748 7.47504C2.51248 12.4125 2.52498 20.4125 7.46248 25.35L11.0375 21.775C7.12498 17.8625 5.81248 12.3875 7.43748 7.47504ZM7.46248 7.45004L7.44998 7.46254C6.97498 11.225 8.91248 16.0625 12.825 19.9875L19.9875 12.825C16.075 8.91254 11.225 6.97504 7.46248 7.45004Z" fill="#323232"/>
</svg>
