<svg width="30" height="30" viewBox="0 0 30 30" fill="none" xmlns="http://www.w3.org/2000/svg">
<path d="M8.75 23.75C7.375 23.75 6.25 24.875 6.25 26.25H23.75C23.75 24.875 22.625 23.75 21.25 23.75H16.25V21.25H20C21.375 21.25 22.5 20.125 22.5 18.75H12.5C10.425 18.75 8.75 17.075 8.75 15C8.75 13.6375 9.4875 12.45 10.575 11.8C10.2125 11.2875 10 10.675 10 9.99998C10 9.73748 10.05 9.47498 10.1125 9.22498C7.85 10.1625 6.25 12.4 6.25 15C6.25 18.45 9.05 21.25 12.5 21.25V23.75H8.75Z" fill="#323232"/>
<path d="M13.2 6.8875C14.8875 6.925 16.25 8.3 16.25 10C16.25 10.9375 15.8375 11.7625 15.1875 12.3375L15.925 14.3625L17.1 13.9375L17.525 15.1125L19.875 14.2625L19.45 13.0875L20.625 12.6625L17.2 3.25L16.025 3.675L15.6 2.5L13.25 3.35L13.675 4.525L12.5 4.9625L13.2 6.8875Z" fill="#323232"/>
<path d="M13.125 11.875C14.1605 11.875 15 11.0355 15 10C15 8.96447 14.1605 8.125 13.125 8.125C12.0895 8.125 11.25 8.96447 11.25 10C11.25 11.0355 12.0895 11.875 13.125 11.875Z" fill="#323232"/>
</svg>
