<svg width="25" height="25" viewBox="0 0 25 25" fill="none" xmlns="http://www.w3.org/2000/svg">
<path d="M24.4791 11.9791C24.7708 11.9791 24.9999 12.2083 24.9999 12.5C24.9999 12.7916 24.7708 13.0208 24.4791 13.0208H23.9583V11.9791H24.4791Z" fill="#000000"/>
<path d="M13.0209 11.9791H23.9584V13.0208H13.0209V11.9791Z" fill="#000000"/>
<path d="M22.3958 25H12.5C12.7917 25 13.0208 24.7708 13.0208 24.4792V23.9583H22.3958C23.2604 23.9583 23.9583 23.2604 23.9583 22.3958V13.0208H24.4792C24.7708 13.0208 25 12.7917 25 12.5V22.3958C25 23.8333 23.8333 25 22.3958 25Z" fill="#000000"/>
<path d="M25 2.60417V12.5C25 12.2083 24.7708 11.9792 24.4792 11.9792H23.9583V2.60417C23.9583 1.73958 23.2604 1.04167 22.3958 1.04167H13.0208V0.520833C13.0208 0.229167 12.7917 0 12.5 0H22.3958C23.8333 0 25 1.16667 25 2.60417Z" fill="#000000"/>
<path d="M20.8334 6.25C21.125 6.25 21.3542 6.47917 21.3542 6.77083C21.3542 7.0625 21.125 7.29167 20.8334 7.29167H16.6667C16.375 7.29167 16.1459 7.0625 16.1459 6.77083C16.1459 6.47917 16.375 6.25 16.6667 6.25H20.8334Z" fill="#000000"/>
<path d="M20.8334 16.6666C21.125 16.6666 21.3542 16.8958 21.3542 17.1875C21.3542 17.4791 21.125 17.7083 20.8334 17.7083H16.6667C16.375 17.7083 16.1459 17.4791 16.1459 17.1875C16.1459 16.8958 16.375 16.6666 16.6667 16.6666H20.8334Z" fill="#000000"/>
<path d="M20.8334 19.7916C21.125 19.7916 21.3542 20.0208 21.3542 20.3125C21.3542 20.6041 21.125 20.8333 20.8334 20.8333H16.6667C16.375 20.8333 16.1459 20.6041 16.1459 20.3125C16.1459 20.0208 16.375 19.7916 16.6667 19.7916H20.8334Z" fill="#000000"/>
<path d="M13.0208 23.9583V24.4791C13.0208 24.7708 12.7916 24.9999 12.5 24.9999C12.2083 24.9999 11.9791 24.7708 11.9791 24.4791V23.9583H13.0208Z" fill="#000000"/>
<path d="M11.9791 13.0209H13.0208V23.9584H11.9791V13.0209Z" fill="#000000"/>
<path d="M11.9791 11.9791H13.0208V13.0208H11.9791V11.9791Z" fill="#000000"/>
<path d="M11.9791 1.04163H13.0208V11.9791H11.9791V1.04163Z" fill="#000000"/>
<path d="M13.0208 0.520833V1.04167H11.9791V0.520833C11.9791 0.229167 12.2083 0 12.5 0C12.7916 0 13.0208 0.229167 13.0208 0.520833Z" fill="#000000"/>
<path d="M1.04163 11.9791H11.9791V13.0208H1.04163V11.9791Z" fill="#000000"/>
<path d="M8.33337 6.25C8.62504 6.25 8.8542 6.47917 8.8542 6.77083C8.8542 7.0625 8.62504 7.29167 8.33337 7.29167H6.77087V6.25H8.33337Z" fill="#000000"/>
<path d="M8.17709 19.9479C8.38542 20.1458 8.38542 20.4792 8.17709 20.6771C8.08334 20.7812 7.94792 20.8333 7.8125 20.8333C7.67709 20.8333 7.54167 20.7812 7.44792 20.6771L6.25 19.4792L6.97917 18.75L8.17709 19.9479Z" fill="#000000"/>
<path d="M7.44792 16.8229C7.64584 16.6145 7.97917 16.6145 8.17709 16.8229C8.38542 17.0208 8.38542 17.3541 8.17709 17.552L6.97917 18.75L6.25 18.0208L7.44792 16.8229Z" fill="#000000"/>
<path d="M5.51782 18.7489L6.24703 18.0197L6.97623 18.7489L6.24703 19.4781L5.51782 18.7489Z" fill="#000000"/>
<path d="M6.7708 7.29163V8.85413C6.7708 9.14579 6.54163 9.37496 6.24996 9.37496C5.95829 9.37496 5.72913 9.14579 5.72913 8.85413V7.29163H6.7708Z" fill="#000000"/>
<path d="M5.72913 6.25H6.7708V7.29167H5.72913V6.25Z" fill="#000000"/>
<path d="M6.7708 4.68746V6.24996H5.72913V4.68746C5.72913 4.39579 5.95829 4.16663 6.24996 4.16663C6.54163 4.16663 6.7708 4.39579 6.7708 4.68746Z" fill="#000000"/>
<path d="M6.24997 18.0208L5.5208 18.75L4.32288 17.552C4.11454 17.3541 4.11454 17.0208 4.32288 16.8229C4.52079 16.6145 4.85413 16.6145 5.05205 16.8229L6.24997 18.0208Z" fill="#000000"/>
<path d="M5.7292 6.25V7.29167H4.16671C3.87504 7.29167 3.64587 7.0625 3.64587 6.77083C3.64587 6.47917 3.87504 6.25 4.16671 6.25H5.7292Z" fill="#000000"/>
<path d="M5.05205 20.6771C4.95829 20.7812 4.82288 20.8333 4.68746 20.8333C4.55204 20.8333 4.41663 20.7812 4.32288 20.6771C4.11454 20.4792 4.11454 20.1458 4.32288 19.9479L5.5208 18.75L6.24997 19.4792L5.05205 20.6771Z" fill="#000000"/>
<path d="M1.04167 11.9791V13.0208H0.520833C0.229167 13.0208 0 12.7916 0 12.5C0 12.2083 0.229167 11.9791 0.520833 11.9791H1.04167Z" fill="#000000"/>
<path d="M0 2.60417C0 1.16667 1.16667 0 2.60417 0H12.5C12.2083 0 11.9792 0.229167 11.9792 0.520833V1.04167H2.60417C1.73958 1.04167 1.04167 1.73958 1.04167 2.60417V11.9792H0.520833C0.229167 11.9792 0 12.2083 0 12.5V2.60417Z" fill="#000000"/>
<path d="M1.04167 22.3958C1.04167 23.2604 1.73958 23.9583 2.60417 23.9583H11.9792V24.4792C11.9792 24.7708 12.2083 25 12.5 25H2.60417C1.16667 25 0 23.8333 0 22.3958V12.5C0 12.7917 0.229167 13.0208 0.520833 13.0208H1.04167V22.3958Z" fill="#000000"/>
</svg>
