<svg width="30" height="30" viewBox="0 0 30 30" fill="none" xmlns="http://www.w3.org/2000/svg">
<path d="M2.5 27.5L20 21.25L8.75 10L2.5 27.5Z" fill="#323232"/>
<path d="M18.1625 15.6624L25.15 8.67493C25.7625 8.06243 26.75 8.06243 27.3625 8.67493L28.1 9.41243L29.425 8.08743L28.6875 7.34993C27.35 6.01243 25.1625 6.01243 23.825 7.34993L16.8375 14.3374L18.1625 15.6624Z" fill="#323232"/>
<path d="M12.575 8.59995L11.8375 9.33745L13.1625 10.6625L13.9 9.92495C15.2375 8.58745 15.2375 6.39995 13.9 5.06245L13.1625 4.32495L11.8375 5.66245L12.575 6.39995C13.175 6.99995 13.175 7.99995 12.575 8.59995Z" fill="#323232"/>
<path d="M21.325 14.8499L19.3375 16.8374L20.6625 18.1624L22.65 16.1749C23.2625 15.5624 24.25 15.5624 24.8625 16.1749L26.875 18.1874L28.2 16.8624L26.1875 14.8499C24.8375 13.5124 22.6625 13.5124 21.325 14.8499Z" fill="#323232"/>
<path d="M18.825 7.34995L14.3375 11.8375L15.6625 13.1625L20.15 8.67495C21.4875 7.33745 21.4875 5.14995 20.15 3.81245L18.1625 1.82495L16.8375 3.14995L18.825 5.13745C19.425 5.74995 19.425 6.74995 18.825 7.34995Z" fill="#323232"/>
</svg>
