<svg width="30" height="30" viewBox="0 0 30 30" fill="none" xmlns="http://www.w3.org/2000/svg">
<path d="M20 13.75H18.75V3.75C18.75 2.375 17.625 1.25 16.25 1.25H13.75C12.375 1.25 11.25 2.375 11.25 3.75V13.75H10C6.55 13.75 3.75 16.55 3.75 20V28.75H26.25V20C26.25 16.55 23.45 13.75 20 13.75ZM23.75 26.25H21.25V22.5C21.25 21.8125 20.6875 21.25 20 21.25C19.3125 21.25 18.75 21.8125 18.75 22.5V26.25H16.25V22.5C16.25 21.8125 15.6875 21.25 15 21.25C14.3125 21.25 13.75 21.8125 13.75 22.5V26.25H11.25V22.5C11.25 21.8125 10.6875 21.25 10 21.25C9.3125 21.25 8.75 21.8125 8.75 22.5V26.25H6.25V20C6.25 17.9375 7.9375 16.25 10 16.25H20C22.0625 16.25 23.75 17.9375 23.75 20V26.25Z" fill="#323232"/>
</svg>
