<svg width="30" height="30" viewBox="0 0 30 30" fill="none" xmlns="http://www.w3.org/2000/svg">
<path d="M5 20C5 21.1 5.4875 22.0875 6.25 22.775V25C6.25 25.6875 6.8125 26.25 7.5 26.25H8.75C9.4375 26.25 10 25.6875 10 25V23.75H20V25C20 25.6875 20.5625 26.25 21.25 26.25H22.5C23.1875 26.25 23.75 25.6875 23.75 25V22.775C24.5125 22.0875 25 21.1 25 20V7.5C25 3.125 20.525 2.5 15 2.5C9.475 2.5 5 3.125 5 7.5V20ZM9.375 21.25C8.3375 21.25 7.5 20.4125 7.5 19.375C7.5 18.3375 8.3375 17.5 9.375 17.5C10.4125 17.5 11.25 18.3375 11.25 19.375C11.25 20.4125 10.4125 21.25 9.375 21.25ZM20.625 21.25C19.5875 21.25 18.75 20.4125 18.75 19.375C18.75 18.3375 19.5875 17.5 20.625 17.5C21.6625 17.5 22.5 18.3375 22.5 19.375C22.5 20.4125 21.6625 21.25 20.625 21.25ZM22.5 13.75H7.5V7.5H22.5V13.75Z" fill="#323232"/>
</svg>
