<svg width="30" height="30" viewBox="0 0 30 30" fill="none" xmlns="http://www.w3.org/2000/svg">
<path d="M24 4H10.25V7L12.5125 8.8125C12.6625 8.925 12.75 9.1125 12.75 9.3V14.625C12.75 14.975 12.475 15.25 12.125 15.25H7.125C6.775 15.25 6.5 14.975 6.5 14.625V9.3C6.5 9.1125 6.5875 8.925 6.7375 8.8125L9 7V4H4V16.5C4 19.2625 6.2375 21.5 9 21.5H16.5C19.2625 21.5 21.5 19.2625 21.5 16.5V12.75H24C25.3875 12.75 26.5 11.625 26.5 10.25V6.5C26.5 5.1125 25.3875 4 24 4ZM24 10.25H21.5V6.5H24V10.25Z" fill="#323232"/>
<path d="M24 24H4V26.5H24V24Z" fill="#323232"/>
</svg>
