<svg width="30" height="30" viewBox="0 0 30 30" fill="none" xmlns="http://www.w3.org/2000/svg">
<path d="M24.7125 9.0375L24.725 9.025L20.075 4.375L18.75 5.7L21.3875 8.3375C20.2125 8.7875 19.375 9.9125 19.375 11.25C19.375 12.975 20.775 14.375 22.5 14.375C22.95 14.375 23.3625 14.275 23.75 14.1125V23.125C23.75 23.8125 23.1875 24.375 22.5 24.375C21.8125 24.375 21.25 23.8125 21.25 23.125V17.5C21.25 16.125 20.125 15 18.75 15H17.5V6.25C17.5 4.875 16.375 3.75 15 3.75H7.5C6.125 3.75 5 4.875 5 6.25V26.25H17.5V16.875H19.375V23.125C19.375 24.85 20.775 26.25 22.5 26.25C24.225 26.25 25.625 24.85 25.625 23.125V11.25C25.625 10.3875 25.275 9.6 24.7125 9.0375ZM22.5 12.5C21.8125 12.5 21.25 11.9375 21.25 11.25C21.25 10.5625 21.8125 10 22.5 10C23.1875 10 23.75 10.5625 23.75 11.25C23.75 11.9375 23.1875 12.5 22.5 12.5ZM10 22.5V16.875H7.5L12.5 7.5V13.75H15L10 22.5Z" fill="#323232"/>
</svg>
