<svg width="30" height="30" viewBox="0 0 30 30" fill="none" xmlns="http://www.w3.org/2000/svg">
<path d="M22.575 28.7375H24.65C25.7 28.7375 26.5625 27.9375 26.6875 26.9125L28.75 6.3125H22.5V1.25H20.0375V6.3125H13.825L14.2 9.2375C16.3375 9.825 18.3375 10.8875 19.5375 12.0625C21.3375 13.8375 22.575 15.675 22.575 18.675V28.7375ZM1.25 27.4875V26.25H20.0375V27.4875C20.0375 28.175 19.475 28.7375 18.775 28.7375H2.5125C1.8125 28.7375 1.25 28.175 1.25 27.4875ZM20.0375 18.7375C20.0375 8.7375 1.25 8.7375 1.25 18.7375H20.0375ZM1.275 21.25H20.025V23.75H1.275V21.25Z" fill="#323232"/>
</svg>
