<svg width="30" height="30" viewBox="0 0 30 30" fill="none" xmlns="http://www.w3.org/2000/svg">
<path d="M25.7125 18.575L27.5 16.7875L25.7125 15L21.25 19.4625L10.5375 8.75L15 4.2875L13.2125 2.5L11.425 4.2875L9.6375 2.5L6.9625 5.175L5.175 3.3875L3.3875 5.175L5.175 6.9625L2.5 9.6375L4.2875 11.425L2.5 13.2125L4.2875 15L8.75 10.5375L19.4625 21.25L15 25.7125L16.7875 27.5L18.575 25.7125L20.3625 27.5L23.0375 24.825L24.825 26.6125L26.6125 24.825L24.825 23.0375L27.5 20.3625L25.7125 18.575Z" fill="#323232"/>
</svg>
