<svg width="25" height="25" viewBox="0 0 25 25" fill="none" xmlns="http://www.w3.org/2000/svg">
<path d="M20.1959 22.5116L19.0493 13.9121H19.0812C19.4179 13.9121 19.6909 13.6392 19.6909 13.3025V0.906259C19.6909 0.692053 19.5789 0.494363 19.3959 0.384079C19.2128 0.273693 18.9856 0.267178 18.7968 0.366895C16.4196 1.62126 14.9314 4.08761 14.9314 6.77628V12.0031C14.9314 13.0573 15.7862 13.912 16.8405 13.912H16.985L15.8385 22.5116C15.7551 23.1391 15.9464 23.7734 16.3631 24.2497C16.7808 24.7262 17.3838 24.9999 18.0172 24.9999C18.6505 24.9999 19.2536 24.7262 19.6712 24.2497C20.088 23.7734 20.2792 23.1393 20.1959 22.5116Z" fill="#000000"/>
<path d="M10.6427 0C10.1802 0 9.80592 0.374298 9.80592 0.836772V5.51116H8.9691V0.836772C8.9691 0.374298 8.5948 0 8.13227 0C7.66975 0 7.2955 0.374298 7.2955 0.836772V5.51116H6.45868V0.836772C6.45863 0.374298 6.08433 0 5.62186 0C5.15928 0 4.78503 0.374298 4.78503 0.836772V5.51116V6.27612V8.38942C4.78503 9.63075 5.79098 10.6367 7.03231 10.6367H7.21779L5.8989 22.5051C5.82863 23.14 6.03206 23.775 6.45781 24.2515C6.88443 24.7279 7.49324 25 8.13233 25C8.77141 25 9.38017 24.7279 9.80684 24.2515C10.2326 23.775 10.4361 23.14 10.3658 22.5051L9.04681 10.6367H9.23234C10.4736 10.6367 11.4796 9.6308 11.4796 8.38947V6.27617V5.51121V0.836772C11.4796 0.374298 11.1053 0 10.6427 0Z" fill="#000000"/>
</svg>
