<svg width="25" height="25" viewBox="0 0 25 25" fill="none" xmlns="http://www.w3.org/2000/svg">
<g clip-path="url(#clip0)">
<path d="M22.7804 6.11269C22.5763 4.11707 22.2511 2.56327 21.7367 1.95253C19.6156 -0.558637 4.75767 -0.742408 3.07072 1.95253C2.65806 2.61279 2.36865 4.16109 2.17442 6.11599C1.54773 6.18972 1.05969 6.71737 1.05969 7.36332V9.80791C1.05969 10.3515 1.40413 10.8099 1.88501 10.9887C1.77112 14.8391 1.86355 18.8562 2.03412 20.854C2.03412 22.3962 3.07017 22.1404 3.07017 22.1404H4.04129V23.8053C4.04129 24.4656 4.72191 24.9998 5.56043 24.9998C6.40005 24.9998 7.08067 24.4656 7.08067 23.8053V22.1404H18.3787V23.8053C18.3787 24.4656 19.0588 24.9998 19.8984 24.9998C20.7369 24.9998 21.4176 24.4656 21.4176 23.8053V22.1404H21.7367C21.7367 22.1404 22.9559 22.3076 23.0341 21.5814C23.0341 19.589 23.1595 15.1736 23.0561 11.0057C23.5672 10.8456 23.9403 10.3746 23.9403 9.80791V7.36332C23.9408 6.70197 23.4291 6.16551 22.7804 6.11269ZM6.69937 2.31072H18.108V4.03674H6.69937V2.31072ZM6.86223 20.1745C5.96649 20.1745 5.24076 19.4482 5.24076 18.5524C5.24076 17.6572 5.96649 16.9315 6.86223 16.9315C7.75798 16.9315 8.48426 17.6572 8.48426 18.5524C8.48426 19.4482 7.75853 20.1745 6.86223 20.1745ZM18.0469 20.1745C17.1518 20.1745 16.4244 19.4482 16.4244 18.5524C16.4244 17.6572 17.1512 16.9315 18.0469 16.9315C18.9427 16.9315 19.6684 17.6572 19.6684 18.5524C19.669 19.4482 18.9427 20.1745 18.0469 20.1745ZM20.1086 13.0767H4.6988V4.99411H20.1086V13.0767Z" fill="#000000"/>
</g>
<defs>
<clipPath id="clip0">
<rect width="25" height="25" fill="white"/>
</clipPath>
</defs>
</svg>
