<svg width="30" height="30" viewBox="0 0 30 30" fill="none" xmlns="http://www.w3.org/2000/svg">
<path d="M27.0875 22.7125L20.4625 16.0875H19.225L16.05 19.2625V20.5L22.675 27.125C23.1625 27.6125 23.95 27.6125 24.4375 27.125L27.0875 24.475C27.575 24 27.575 23.2 27.0875 22.7125Z" fill="#323232"/>
<path d="M21.675 12.7375L23.4375 10.975L26.0875 13.625C27.55 12.1625 27.55 9.7875 26.0875 8.325L21.6625 3.9L19.9 5.6625V2.1375L19.025 1.25L14.6 5.675L15.4875 6.5625H19.025L17.2625 8.325L18.5875 9.65L14.975 13.2625L9.8125 8.1V6.325L6.0375 2.55L2.5 6.0875L6.2875 9.875H8.05L13.2125 15.0375L12.15 16.1H9.5L2.875 22.725C2.3875 23.2125 2.3875 24 2.875 24.4875L5.525 27.1375C6.0125 27.625 6.8 27.625 7.2875 27.1375L13.9125 20.5125V17.8625L20.35 11.425L21.675 12.7375Z" fill="#323232"/>
</svg>
