<svg width="25" height="25" viewBox="0 0 25 25" fill="#000000" xmlns="http://www.w3.org/2000/svg">
<g clip-path="url(#clip0)">
<path d="M24.5801 11.176L13.3634 0.955425C12.8711 0.506745 12.1286 0.506793 11.6365 0.955376L0.419765 11.1761C0.0253805 11.5354 -0.104893 12.0891 0.0877828 12.5866C0.280507 13.0842 0.749745 13.4056 1.28329 13.4056H3.07479V23.6459C3.07479 24.0519 3.40399 24.3811 3.81 24.3811H9.95814C10.3641 24.3811 10.6933 24.0519 10.6933 23.6459V17.4283H14.3067V23.6459C14.3067 24.0519 14.6359 24.3811 15.0419 24.3811H21.1898C21.5958 24.3811 21.925 24.052 21.925 23.6459V13.4056H23.7168C24.2503 13.4056 24.7196 13.0841 24.9123 12.5866C25.1048 12.0891 24.9745 11.5354 24.5801 11.176Z" fill="#000000"/>
<path d="M21.7329 2.08643H16.7955L22.4681 7.24442V2.82158C22.4681 2.41558 22.139 2.08643 21.7329 2.08643Z" fill="#000000"/>
</g>
<defs>
<clipPath id="clip0">
<rect width="25" height="25" fill="white"/>
</clipPath>
</defs>
</svg>
