<svg width="30" height="30" viewBox="0 0 30 30" fill="none" xmlns="http://www.w3.org/2000/svg">
<path fill-rule="evenodd" clip-rule="evenodd" d="M10.9875 15.5L15.0625 23.275L19.025 15.5125C18.8875 15.4125 18.7625 15.3125 18.65 15.2C17.6 15.8625 16.3375 16.25 15 16.25C13.6625 16.25 12.4 15.8625 11.35 15.2C11.2375 15.3125 11.1125 15.4125 10.9875 15.5ZM8.5375 16.2375C6.5625 16.125 5 14.5 5 12.5C5 10.6375 6.3625 9.0875 8.15 8.8C8.4375 5.275 11.4 2.5 15 2.5C18.6 2.5 21.5625 5.275 21.85 8.8C23.6375 9.0875 25 10.6375 25 12.5C25 14.4875 23.45 16.125 21.4875 16.2375L15.0875 28.75L8.5375 16.2375Z" fill="#323232"/>
</svg>
