<svg width="30" height="4" viewBox="0 0 30 4" fill="none" xmlns="http://www.w3.org/2000/svg">
<path d="M25.7875 10.675L24.6 10.275C24.1 10.1125 23.75 9.6375 23.75 9.1V3.75C23.75 3.0625 23.1875 2.5 22.5 2.5H18.75C18.0625 2.5 17.5 3.0625 17.5 3.75V9.1C17.5 9.6375 17.15 10.1125 16.65 10.2875L15.4625 10.6875C14.4375 11.025 13.75 11.975 13.75 13.05V25C13.75 26.375 14.875 27.5 16.25 27.5H25C26.375 27.5 27.5 26.375 27.5 25V13.05C27.5 11.975 26.8125 11.025 25.7875 10.675ZM20 5H21.25V6.25H20V5ZM16.25 13.05L17.4375 12.65C18.975 12.15 20 10.7125 20 9.1V8.75H21.25V9.1C21.25 10.7125 22.275 12.15 23.8125 12.6625L25 13.05V15H16.25V13.05ZM25 25H16.25V22.5H25V25Z" fill="#323232"/>
</svg>
