<svg width="30" height="30" viewBox="0 0 30 30" fill="none" xmlns="http://www.w3.org/2000/svg">
<path d="M15 27.5C21.2125 27.5 26.25 22.4625 26.25 16.25C20.0375 16.25 15 21.2875 15 27.5ZM7 12.8125C7 14.5375 8.4 15.9375 10.125 15.9375C10.7875 15.9375 11.3875 15.7375 11.9 15.3875L11.875 15.625C11.875 17.35 13.275 18.75 15 18.75C16.725 18.75 18.125 17.35 18.125 15.625L18.1 15.3875C18.6 15.7375 19.2125 15.9375 19.875 15.9375C21.6 15.9375 23 14.5375 23 12.8125C23 11.5625 22.2625 10.5 21.2125 10C22.2625 9.5 23 8.4375 23 7.1875C23 5.4625 21.6 4.0625 19.875 4.0625C19.2125 4.0625 18.6125 4.2625 18.1 4.6125L18.125 4.375C18.125 2.65 16.725 1.25 15 1.25C13.275 1.25 11.875 2.65 11.875 4.375L11.9 4.6125C11.4 4.2625 10.7875 4.0625 10.125 4.0625C8.4 4.0625 7 5.4625 7 7.1875C7 8.4375 7.7375 9.5 8.7875 10C7.7375 10.5 7 11.5625 7 12.8125ZM15 6.875C16.725 6.875 18.125 8.275 18.125 10C18.125 11.725 16.725 13.125 15 13.125C13.275 13.125 11.875 11.725 11.875 10C11.875 8.275 13.275 6.875 15 6.875ZM3.75 16.25C3.75 22.4625 8.7875 27.5 15 27.5C15 21.2875 9.9625 16.25 3.75 16.25Z" fill="#323232"/>
</svg>
