<svg width="30" height="30" viewBox="0 0 30 30" fill="none" xmlns="http://www.w3.org/2000/svg">
<path d="M21.25 6.25C22.2875 6.25 23.125 5.4125 23.125 4.375C23.125 3.125 21.25 1 21.25 1C21.25 1 19.375 3.125 19.375 4.375C19.375 5.4125 20.2125 6.25 21.25 6.25ZM15 6.25C16.0375 6.25 16.875 5.4125 16.875 4.375C16.875 3.125 15 1 15 1C15 1 13.125 3.125 13.125 4.375C13.125 5.4125 13.9625 6.25 15 6.25ZM8.75 6.25C9.7875 6.25 10.625 5.4125 10.625 4.375C10.625 3.125 8.75 1 8.75 1C8.75 1 6.875 3.125 6.875 4.375C6.875 5.4125 7.7125 6.25 8.75 6.25ZM23.65 10.0125C23.4 9.275 22.7 8.75 21.875 8.75H8.125C7.3 8.75 6.6125 9.275 6.35 10.0125L3.75 17.5V27.5C3.75 28.1875 4.3125 28.75 5 28.75H6.25C6.9375 28.75 7.5 28.1875 7.5 27.5V26.25H22.5V27.5C22.5 28.1875 23.0625 28.75 23.75 28.75H25C25.6875 28.75 26.25 28.1875 26.25 27.5V17.5L23.65 10.0125ZM8.125 22.5C7.0875 22.5 6.25 21.6625 6.25 20.625C6.25 19.5875 7.0875 18.75 8.125 18.75C9.1625 18.75 10 19.5875 10 20.625C10 21.6625 9.1625 22.5 8.125 22.5ZM21.875 22.5C20.8375 22.5 20 21.6625 20 20.625C20 19.5875 20.8375 18.75 21.875 18.75C22.9125 18.75 23.75 19.5875 23.75 20.625C23.75 21.6625 22.9125 22.5 21.875 22.5ZM6.25 16.25L8.125 10.625H21.875L23.75 16.25H6.25Z" fill="#323232"/>
</svg>
