<svg width="30" height="30" viewBox="0 0 30 30" fill="none" xmlns="http://www.w3.org/2000/svg">
<path d="M15 2.5C10.5375 2.5 6.53751 4.425 3.76251 7.5L15 27.5L26.2375 7.5C23.475 4.4375 19.4625 2.5 15 2.5ZM8.75001 8.75C8.75001 7.375 9.87501 6.25 11.25 6.25C12.625 6.25 13.75 7.375 13.75 8.75C13.75 10.125 12.625 11.25 11.25 11.25C9.87501 11.25 8.75001 10.125 8.75001 8.75ZM15 18.75C13.625 18.75 12.5 17.625 12.5 16.25C12.5 14.875 13.625 13.75 15 13.75C16.375 13.75 17.5 14.875 17.5 16.25C17.5 17.625 16.375 18.75 15 18.75Z" fill="#323232"/>
</svg>
