<svg width="30" height="4" viewBox="0 0 30 4" fill="none" xmlns="http://www.w3.org/2000/svg">
<path d="M21.25 7.5H18.75V3.75C18.75 3.0625 18.1875 2.5 17.5 2.5H12.5C11.8125 2.5 11.25 3.0625 11.25 3.75V7.5H8.75C7.375 7.5 6.25 8.625 6.25 10V23.75C6.25 25.125 7.375 26.25 8.75 26.25C8.75 26.9375 9.3125 27.5 10 27.5C10.6875 27.5 11.25 26.9375 11.25 26.25H18.75C18.75 26.9375 19.3125 27.5 20 27.5C20.6875 27.5 21.25 26.9375 21.25 26.25C22.625 26.25 23.75 25.125 23.75 23.75V10C23.75 8.625 22.625 7.5 21.25 7.5ZM11.875 22.5H10V11.25H11.875V22.5ZM15.9375 22.5H14.0625V11.25H15.9375V22.5ZM16.875 7.5H13.125V4.375H16.875V7.5ZM20 22.5H18.125V11.25H20V22.5Z" fill="#323232"/>
</svg>
