<svg width="15" height="3" viewBox="0 0 15 3" fill="none" xmlns="http://www.w3.org/2000/svg">
<path d="M1.50001 3.00001C2.32844 3.00001 3.00002 2.32844 3.00002 1.50001C3.00002 0.671575 2.32844 0 1.50001 0C0.671578 0 0 0.671575 0 1.50001C0 2.32844 0.671578 3.00001 1.50001 3.00001Z" fill="black"/>
<path d="M7.50001 3.00001C8.32844 3.00001 9.00001 2.32844 9.00001 1.50001C9.00001 0.671575 8.32844 0 7.50001 0C6.67158 0 6 0.671575 6 1.50001C6 2.32844 6.67158 3.00001 7.50001 3.00001Z" fill="black"/>
<path d="M13.5 3.00001C14.3284 3.00001 15 2.32844 15 1.50001C15 0.671575 14.3284 0 13.5 0C12.6716 0 12 0.671575 12 1.50001C12 2.32844 12.6716 3.00001 13.5 3.00001Z" fill="black"/>
</svg>
