<svg width="30" height="30" viewBox="0 0 30 30" fill="none" xmlns="http://www.w3.org/2000/svg">
<g clip-path="url(#clip0)">
<path d="M24.5 7.625L25.5 6.625C23.75 4.875 21.5 4 19.25 4C17 4 14.75 4.875 13 6.625L14 7.625C15.5 6.25 17.375 5.5 19.25 5.5C21.125 5.5 23 6.25 24.5 7.625ZM23.375 8.625C22.25 7.5 20.75 6.875 19.25 6.875C17.75 6.875 16.25 7.5 15.125 8.625L16.125 9.625C17 8.75 18.125 8.375 19.25 8.375C20.375 8.375 21.5 8.75 22.375 9.625L23.375 8.625ZM23 16.5H20.5V11.5H18V16.5H5.5C4.125 16.5 3 17.625 3 19V24C3 25.375 4.125 26.5 5.5 26.5H23C24.375 26.5 25.5 25.375 25.5 24V19C25.5 17.625 24.375 16.5 23 16.5ZM9.25 22.75H6.75V20.25H9.25V22.75ZM13.625 22.75H11.125V20.25H13.625V22.75ZM18 22.75H15.5V20.25H18V22.75Z" fill="#323232"/>
</g>
<defs>
<clipPath id="clip0">
<rect width="30" height="30" fill="white"/>
</clipPath>
</defs>
</svg>
