<svg width="30" height="30" viewBox="0 0 30 30" fill="none" xmlns="http://www.w3.org/2000/svg">
<path d="M26.25 11.25C24.875 11.25 23.75 10.125 23.75 8.75C23.75 7.375 26.25 3.75 26.25 3.75C26.25 3.75 28.75 7.375 28.75 8.75C28.75 10.125 27.625 11.25 26.25 11.25ZM21.875 8.75C21.875 7.8375 22.3875 6.6125 23.025 5.425C20.85 3.6 18.05 2.5 14.9875 2.5C8.0875 2.5 2.5 8.1 2.5 15C2.5 21.9 8.0875 27.5 14.9875 27.5C21.9 27.5 27.5 21.9 27.5 15C27.5 14.3125 27.425 13.6375 27.325 12.975C26.975 13.0625 26.625 13.125 26.25 13.125C23.8375 13.125 21.875 11.1625 21.875 8.75ZM19.525 9.225L20.85 10.55L19.525 11.875L20.85 13.2L19.525 14.525L16.875 11.875L19.525 9.225ZM9.15 10.55L10.475 9.225L13.125 11.875L10.475 14.525L9.15 13.2L10.475 11.875L9.15 10.55ZM19.3 21.25C18.4375 19.7625 16.8375 18.75 15 18.75C13.1625 18.75 11.5625 19.7625 10.7 21.25H8.6C8.975 20.3 9.55 19.4625 10.275 18.7625L6.55 16.625C5.9875 16.95 5.2875 16.975 4.6875 16.625C3.7875 16.1125 3.4875 14.9625 4 14.0625C4.5125 13.1625 5.6625 12.8625 6.5625 13.375C7.1625 13.725 7.4875 14.35 7.4875 14.9875L11.9625 17.575C12.875 17.125 13.9 16.875 15 16.875C17.9125 16.875 20.4 18.6875 21.4 21.25H19.3Z" fill="#323232"/>
</svg>
