<svg width="30" height="30" viewBox="0 0 30 30" fill="none" xmlns="http://www.w3.org/2000/svg">
<path d="M7.5 5.01251C4.475 7.30001 2.5 10.9125 2.5 15C2.5 16.825 2.9 18.5625 3.6125 20.1375L7.5 17.8875V5.01251Z" fill="#323232"/>
<path d="M13.75 14.275V2.5625C12.425 2.7 11.1625 3.0375 10 3.55V16.45L13.75 14.275Z" fill="#323232"/>
<path d="M15 16.4375L4.86249 22.2875C5.62499 23.3375 6.53749 24.275 7.58749 25.0375L18.75 18.6125L15 16.4375Z" fill="#323232"/>
<path d="M16.25 9.95001V14.275L26.3875 20.125C26.9125 18.9625 27.2625 17.7125 27.4125 16.4L16.25 9.95001Z" fill="#323232"/>
<path d="M10.0875 26.5C11.6 27.1375 13.25 27.5 15 27.5C19.175 27.5 22.8625 25.4375 25.1375 22.3L21.25 20.05L10.0875 26.5Z" fill="#323232"/>
<path d="M27.4 13.5125C26.7125 7.725 22.075 3.1375 16.25 2.5625V7.0625L27.4 13.5125Z" fill="#323232"/>
</svg>
