<svg width="30" height="30" viewBox="0 0 30 30" fill="none" xmlns="http://www.w3.org/2000/svg">
<path d="M26.975 20.1125L25.6125 10.5375C25.2625 8.075 23.15 6.25 20.6625 6.25H9.33752C6.85002 6.25 4.73752 8.075 4.38752 10.5375L3.02502 20.1125C2.75002 22.0375 4.23752 23.75 6.17502 23.75C7.02502 23.75 7.82502 23.4125 8.42502 22.8125L11.25 20H18.75L21.5625 22.8125C22.1625 23.4125 22.975 23.75 23.8125 23.75C25.7625 23.75 27.25 22.0375 26.975 20.1125ZM13.75 13.75H11.25V16.25H10V13.75H7.50002V12.5H10V10H11.25V12.5H13.75V13.75ZM18.75 12.5C18.0625 12.5 17.5 11.9375 17.5 11.25C17.5 10.5625 18.0625 10 18.75 10C19.4375 10 20 10.5625 20 11.25C20 11.9375 19.4375 12.5 18.75 12.5ZM21.25 16.25C20.5625 16.25 20 15.6875 20 15C20 14.3125 20.5625 13.75 21.25 13.75C21.9375 13.75 22.5 14.3125 22.5 15C22.5 15.6875 21.9375 16.25 21.25 16.25Z" fill="#323232"/>
</svg>
