<svg width="30" height="30" viewBox="0 0 30 30" fill="none" xmlns="http://www.w3.org/2000/svg">
<path d="M2.5 20.625C2.5 24.425 5.575 27.5 9.375 27.5C13.175 27.5 16.25 24.425 16.25 20.625V12.5H2.5V20.625ZM9.375 23.125C7.65 23.125 6.25 22.2875 6.25 21.25H12.5C12.5 22.2875 11.1 23.125 9.375 23.125ZM12.5 16.25C13.1875 16.25 13.75 16.8125 13.75 17.5C13.75 18.1875 13.1875 18.75 12.5 18.75C11.8125 18.75 11.25 18.1875 11.25 17.5C11.25 16.8125 11.8125 16.25 12.5 16.25ZM6.25 16.25C6.9375 16.25 7.5 16.8125 7.5 17.5C7.5 18.1875 6.9375 18.75 6.25 18.75C5.5625 18.75 5 18.1875 5 17.5C5 16.8125 5.5625 16.25 6.25 16.25Z" fill="#323232"/>
<path d="M13.75 3.75V11.25H17.5V14.375C17.5 13.3375 18.9 12.5 20.625 12.5C22.35 12.5 23.75 13.3375 23.75 14.375H17.5V17.5V17.9875C18.4375 18.4625 19.5 18.75 20.625 18.75C24.425 18.75 27.5 15.675 27.5 11.875V3.75H13.75ZM17.5 10.1C16.8125 10.1 16.25 9.5375 16.25 8.85C16.25 8.1625 16.8125 7.6 17.5 7.6C18.1875 7.6 18.75 8.1625 18.75 8.85C18.75 9.55 18.1875 10.1 17.5 10.1ZM23.75 10.1C23.0625 10.1 22.5 9.5375 22.5 8.85C22.5 8.1625 23.0625 7.6 23.75 7.6C24.4375 7.6 25 8.1625 25 8.85C25 9.55 24.4375 10.1 23.75 10.1Z" fill="#323232"/>
</svg>
