<svg width="30" height="4" viewBox="0 0 30 4" fill="none" xmlns="http://www.w3.org/2000/svg">
<path d="M15 2.5C10 2.5 5 3.125 5 7.5V19.375C5 21.7875 6.9625 23.75 9.375 23.75L7.5 25.625V26.25H10.2875L12.7875 23.75H17.5L20 26.25H22.5V25.625L20.625 23.75C23.0375 23.75 25 21.7875 25 19.375V7.5C25 3.125 20.525 2.5 15 2.5ZM9.375 21.25C8.3375 21.25 7.5 20.4125 7.5 19.375C7.5 18.3375 8.3375 17.5 9.375 17.5C10.4125 17.5 11.25 18.3375 11.25 19.375C11.25 20.4125 10.4125 21.25 9.375 21.25ZM13.75 12.5H7.5V7.5H13.75V12.5ZM16.25 12.5V7.5H22.5V12.5H16.25ZM20.625 21.25C19.5875 21.25 18.75 20.4125 18.75 19.375C18.75 18.3375 19.5875 17.5 20.625 17.5C21.6625 17.5 22.5 18.3375 22.5 19.375C22.5 20.4125 21.6625 21.25 20.625 21.25Z" fill="#323232"/>
</svg>
