<svg width="30" height="30" viewBox="0 0 30 30" fill="none" xmlns="http://www.w3.org/2000/svg">
<path d="M26.25 7.5H3.75C2.375 7.5 1.25 8.625 1.25 10V20C1.25 21.375 2.375 22.5 3.75 22.5H26.25C27.625 22.5 28.75 21.375 28.75 20V10C28.75 8.625 27.625 7.5 26.25 7.5ZM13.75 16.25H10V20H7.5V16.25H3.75V13.75H7.5V10H10V13.75H13.75V16.25ZM19.375 18.75C18.3375 18.75 17.5 17.9125 17.5 16.875C17.5 15.8375 18.3375 15 19.375 15C20.4125 15 21.25 15.8375 21.25 16.875C21.25 17.9125 20.4125 18.75 19.375 18.75ZM24.375 15C23.3375 15 22.5 14.1625 22.5 13.125C22.5 12.0875 23.3375 11.25 24.375 11.25C25.4125 11.25 26.25 12.0875 26.25 13.125C26.25 14.1625 25.4125 15 24.375 15Z" fill="#323232"/>
</svg>
