<svg width="22" height="22" viewBox="0 0 22 22" fill="none" xmlns="http://www.w3.org/2000/svg">
<g clip-path="url(#clip0)">
<path d="M18.7917 5.90962H3.20835C1.43915 5.90962 0 7.34877 0 9.11792V18.2846C0 20.0537 1.43915 21.4929 3.20835 21.4929H18.7917C20.5608 21.4929 22 20.0538 22 18.2846V9.11792C22 7.34877 20.5608 5.90962 18.7917 5.90962ZM21.0833 18.2846C21.0833 19.5478 20.0557 20.5763 18.7917 20.5763H3.20835C1.94425 20.5763 0.916695 19.5478 0.916695 18.2846V9.11792C0.916695 7.85477 1.94429 6.82627 3.20835 6.82627H18.7917C20.0558 6.82627 21.0833 7.85477 21.0833 9.11792V18.2846Z" fill="#000000"/>
<path d="M17.875 12.3263C17.1169 12.3263 16.5 12.9432 16.5 13.7013C16.5 14.4594 17.1169 15.0763 17.875 15.0763C18.6331 15.0763 19.25 14.4594 19.25 13.7013C19.25 12.9432 18.6331 12.3263 17.875 12.3263ZM17.875 14.1596C17.6229 14.1596 17.4167 13.9543 17.4167 13.7013C17.4167 13.4483 17.6229 13.2429 17.875 13.2429C18.1271 13.2429 18.3333 13.4483 18.3333 13.7013C18.3333 13.9543 18.1271 14.1596 17.875 14.1596Z" fill="#000000"/>
<path d="M21.5417 10.4929H17.875C16.1059 10.4929 14.6667 11.9321 14.6667 13.7013C14.6667 15.4704 16.1058 16.9096 17.875 16.9096H21.5417C21.7947 16.9096 22 16.7043 22 16.4513V10.9513C22 10.6983 21.7947 10.4929 21.5417 10.4929ZM21.0834 15.9929H17.875C16.6109 15.9929 15.5834 14.9644 15.5834 13.7013C15.5834 12.4381 16.6109 11.4096 17.875 11.4096H21.0834V15.9929Z" fill="#000000"/>
<path d="M18.7431 6.16263L16.8025 2.28143C16.4111 1.49858 15.7355 0.922028 14.9013 0.658028C14.0672 0.39493 13.1835 0.47743 12.4117 0.891778L2.99109 5.96463C2.76834 6.08378 2.68494 6.36247 2.805 6.58522C2.92509 6.80797 3.20375 6.89138 3.42559 6.77132L12.848 1.70028C13.398 1.40328 14.0314 1.34368 14.6254 1.53253C15.2212 1.72043 15.7034 2.13293 15.983 2.69213L17.9236 6.57328C18.0042 6.73368 18.1656 6.82628 18.3333 6.82628C18.4021 6.82628 18.4717 6.81068 18.5377 6.77768C18.7641 6.66403 18.8558 6.38903 18.7431 6.16263Z" fill="#000000"/>
<path d="M16.9043 2.48493C16.7833 2.26128 16.5046 2.17878 16.2828 2.29793L9.47286 5.96458C9.25011 6.08468 9.16671 6.36243 9.28676 6.58518C9.36926 6.73918 9.52691 6.82628 9.69011 6.82628C9.76346 6.82628 9.83861 6.80887 9.90826 6.77218L16.7182 3.10553C16.9409 2.98543 17.0244 2.70768 16.9043 2.48493Z" fill="#000000"/>
<path d="M8.25 3.15963H5.04165C2.26235 3.15963 0 5.42103 0 8.20128V9.11793C0 9.37093 0.205348 9.57628 0.458348 9.57628C0.711348 9.57628 0.916695 9.37093 0.916695 9.11793V8.20128C0.916695 5.92703 2.76745 4.07628 5.0417 4.07628H8.25C8.503 4.07628 8.70835 3.87093 8.70835 3.61793C8.70835 3.36493 8.503 3.15963 8.25 3.15963Z" fill="#000000"/>
<path d="M16.9583 3.15963C16.7053 3.15963 16.5 3.36498 16.5 3.61798C16.5 3.87098 16.7053 4.07632 16.9583 4.07632C19.2326 4.07632 21.0833 5.92707 21.0833 8.20132V9.11797C21.0833 9.37097 21.2887 9.57632 21.5417 9.57632C21.7947 9.57632 22 9.37097 22 9.11797V8.20132C22 5.42103 19.7377 3.15963 16.9583 3.15963Z" fill="#000000"/>
</g>
<defs>
<clipPath id="clip0">
<rect width="22" height="22" fill="white"/>
</clipPath>
</defs>
</svg>
