<svg width="30" height="30" viewBox="0 0 30 30" fill="none" xmlns="http://www.w3.org/2000/svg">
<path d="M26.25 12.5C24.875 12.5 23.75 13.625 23.75 15V18.75H6.25V15C6.25 13.625 5.1375 12.5 3.75 12.5C2.3625 12.5 1.25 13.625 1.25 15V21.25C1.25 22.625 2.375 23.75 3.75 23.75H26.25C27.625 23.75 28.75 22.625 28.75 21.25V15C28.75 13.625 27.625 12.5 26.25 12.5ZM22.5 6.25H7.5C6.125 6.25 5 7.375 5 8.75V11.4375C6.45 11.95 7.5 13.3375 7.5 14.95V17.5H22.5V14.9625C22.5 13.3375 23.55 11.9625 25 11.45V8.75C25 7.375 23.875 6.25 22.5 6.25Z" fill="#323232"/>
</svg>
