<svg width="23" height="21" viewBox="0 0 23 21" fill="none" xmlns="http://www.w3.org/2000/svg">
<path d="M21.7761 8.5339L11.8217 1.24554C11.6298 1.10502 11.369 1.10502 11.1771 1.24554L1.22274 8.5339C0.979603 8.71194 0.926775 9.05336 1.10482 9.2965C1.28287 9.53964 1.62433 9.59239 1.86743 9.41442L11.4994 2.36203L21.1314 9.41438C21.2285 9.48554 21.3414 9.51979 21.4533 9.51979C21.6213 9.51979 21.787 9.44247 21.8939 9.29646C22.072 9.05336 22.0192 8.71194 21.7761 8.5339Z" fill="black" stroke="black" stroke-width="0.5"/>
<path d="M19.139 9.5379C18.8377 9.5379 18.5934 9.78219 18.5934 10.0835V18.7686H14.2284V14.0277C14.2284 12.5233 13.0044 11.2994 11.5001 11.2994C9.99569 11.2994 8.7717 12.5233 8.7717 14.0277V18.7686H4.40669V10.0836C4.40669 9.78223 4.16236 9.53794 3.86106 9.53794C3.55976 9.53794 3.31543 9.78223 3.31543 10.0836V19.3143C3.31543 19.6156 3.55976 19.8599 3.86106 19.8599H9.31733C9.60427 19.8599 9.83909 19.6382 9.86083 19.3568C9.86214 19.344 9.86296 19.3301 9.86296 19.3143V14.0278C9.86296 13.125 10.5973 12.3907 11.5001 12.3907C12.4028 12.3907 13.1372 13.1251 13.1372 14.0278V19.3143C13.1372 19.33 13.138 19.3437 13.1393 19.3563C13.1608 19.6379 13.3957 19.8599 13.6828 19.8599H19.1391C19.4404 19.8599 19.6847 19.6156 19.6847 19.3143V10.0836C19.6846 9.78219 19.4404 9.5379 19.139 9.5379Z" fill="black" stroke="black" stroke-width="0.5"/>
</svg>
