<svg width="25" height="25" viewBox="0 0 25 25" fill="none" xmlns="http://www.w3.org/2000/svg">
<path d="M7.37244 16.2109V20.1172C7.37244 20.5217 7.70037 20.8496 8.10486 20.8496H17.8705C18.275 20.8496 18.6029 20.5217 18.6029 20.1172V16.2109C18.6029 15.8064 18.275 15.4785 17.8705 15.4785H8.10486C7.70032 15.4785 7.37244 15.8064 7.37244 16.2109ZM8.83728 16.9434H17.1381V19.3848H8.83728V16.9434Z" fill="#000000"/>
<path d="M23.1913 9.91103C23.1276 9.86357 23.0578 9.82759 22.9846 9.80322C22.9931 9.70982 22.9974 9.61582 22.9974 9.52148C22.9974 8.90713 22.8173 8.31396 22.4921 7.80894C23.3925 7.24375 23.974 6.24565 23.974 5.12695C23.974 3.3769 22.5502 1.95312 20.8002 1.95312C20.6377 1.95312 20.4763 1.96582 20.3166 1.99102C19.8465 0.813135 18.7022 0 17.3822 0C16.0793 0 14.939 0.789746 14.4568 1.95312H14.4525C12.765 1.95312 11.3814 3.2771 11.2846 4.94072C10.5635 5.0562 9.87872 5.3417 9.28785 5.77148L7.85885 3.29639C6.84923 1.54771 4.60509 0.946387 2.85631 1.95596C1.10758 2.96562 0.506259 5.20972 1.51593 6.9585L3.13941 9.77051C3.01261 9.78491 2.88956 9.83223 2.7838 9.91118C2.57643 10.066 2.46617 10.3188 2.49376 10.5761C2.73775 12.8534 2.98585 15.1938 3.22579 17.4572C3.4234 19.3212 3.62101 21.1852 3.81861 23.0362C3.93814 24.1557 4.8774 25 6.00348 25H19.9712C21.0976 25 22.037 24.1553 22.1562 23.0352L23.4816 10.5755C23.509 10.3183 23.3986 10.0657 23.1913 9.91103ZM14.4525 3.41797C14.5691 3.41797 14.6908 3.43247 14.8246 3.46226C15.0195 3.50562 15.2239 3.46748 15.3902 3.35664C15.5565 3.24575 15.6702 3.07173 15.705 2.87495C15.8496 2.05791 16.5549 1.46484 17.3822 1.46484C18.2478 1.46484 18.9728 2.11909 19.0687 2.98672C19.0945 3.21987 19.2304 3.42661 19.4342 3.54272C19.638 3.65884 19.8852 3.67026 20.0988 3.57349C20.3267 3.47031 20.5626 3.41797 20.8002 3.41797C21.7425 3.41797 22.5092 4.18462 22.5092 5.12695C22.5092 5.95522 21.9151 6.66064 21.0967 6.80435C20.8051 6.85557 20.573 7.07734 20.5085 7.36636C20.4441 7.65537 20.56 7.95474 20.8023 8.125C21.2596 8.44639 21.5326 8.96846 21.5326 9.52153C21.5326 9.77441 21.4745 10.0233 21.3642 10.2527C19.6853 10.8604 17.9583 11.2804 16.198 11.5104C16.3014 11.2935 16.3874 11.0686 16.4561 10.8381C18.3353 8.07778 18.5902 5.30713 18.6003 5.18906C18.6345 4.78604 18.3356 4.43149 17.9325 4.39722C17.5296 4.36362 17.175 4.66191 17.1407 5.06499C17.1392 5.08272 17.0243 6.32969 16.3664 7.92456C15.7967 6.37563 14.4228 5.2123 12.7536 4.94258C12.846 4.08662 13.5725 3.41797 14.4525 3.41797ZM12.0111 6.34766C13.7612 6.34766 15.185 7.77144 15.185 9.52148C15.185 10.3361 14.8827 11.0941 14.3304 11.6823C13.8845 11.7063 13.4369 11.7188 12.9877 11.7188C12.8986 11.7188 12.8096 11.7181 12.7206 11.7171L10.0264 7.05063C10.5869 6.59951 11.287 6.34766 12.0111 6.34766ZM2.565 4.55874C2.7169 3.99185 3.08048 3.51802 3.58873 3.22451C4.63795 2.6188 5.98443 2.97954 6.59024 4.02881L7.21842 5.11685L5.13175 5.24209C4.72794 5.26631 4.42027 5.61328 4.44449 6.01704C4.46783 6.40591 4.79044 6.70562 5.17491 6.70562C5.18971 6.70562 5.20455 6.70518 5.21949 6.7043L8.03726 6.53521L8.68326 7.6541L6.59659 7.77935C6.19283 7.80356 5.88517 8.15059 5.90938 8.5543C5.93272 8.94316 6.25538 9.24287 6.6398 9.24287C6.6546 9.24287 6.66944 9.24243 6.68438 9.24155L9.50211 9.07241L10.9833 11.6379C9.02374 11.4796 7.10074 11.089 5.23409 10.469L2.78453 6.22607C2.49103 5.71782 2.4131 5.12568 2.565 4.55874ZM20.6995 22.8802C20.6598 23.2536 20.3467 23.5352 19.9712 23.5352H6.00348C5.62809 23.5352 5.315 23.2538 5.27516 22.8807C5.0776 21.03 4.88004 19.1664 4.68248 17.3028C4.48438 15.4341 4.28072 13.5129 4.07838 11.6179C6.9379 12.6574 9.92926 13.1836 12.9877 13.1836C16.0465 13.1836 19.0379 12.6574 21.8977 11.6176L20.6995 22.8802Z" fill="#000000"/>
</svg>
